<svg xmlns="http://www.w3.org/2000/svg" xmlns:xlink="http://www.w3.org/1999/xlink" width="32" height="32" viewBox="0 0 32 32"><defs><linearGradient id="a"><stop offset="0" stop-color="#000092"/><stop offset="1" stop-color="#ff00f3"/></linearGradient><linearGradient id="b" x1="2.045" x2="26" y1="16.001" y2="16.001" gradientUnits="userSpaceOnUse" xlink:href="#a"/></defs><path style="line-height:normal;text-indent:0;text-align:start;text-decoration-line:none;text-decoration-style:solid;text-decoration-color:#000;text-transform:none;block-progression:tb;white-space:normal;isolation:auto;mix-blend-mode:normal;solid-color:#000;solid-opacity:1" fill="url(#b)" d="M 19.978516 3.015625 A 0.50005 0.50005 0 0 0 19.662109 3.1464844 L 13.162109 9.1464844 A 0.50005 0.50005 0 0 0 13.009766 9.4160156 L 10.667969 21.121094 C 7.7693417 21.44912 5.4591029 22.007323 3.9550781 22.740234 C 3.1737319 23.120934 2.5906989 23.541344 2.2636719 24.089844 C 1.9366448 24.638244 1.977698 25.356191 2.3828125 25.900391 C 3.1930338 26.988791 4.9902515 27.655134 7.4179688 28.177734 C 9.8456859 28.700234 12.909819 28.998728 16.193359 28.986328 C 19.476867 28.973328 22.509163 28.652628 24.882812 28.111328 C 26.069638 27.840628 27.091721 27.516319 27.908203 27.136719 C 28.724686 26.757219 29.34897 26.332678 29.707031 25.767578 C 30.065108 25.202478 30.023418 24.484831 29.650391 23.957031 C 29.277363 23.429131 28.662105 23.018684 27.845703 22.646484 C 26.32156 21.951716 24.037971 21.42426 21.228516 21.113281 L 19.011719 11.503906 L 20.492188 3.6074219 A 0.50005 0.50005 0 0 0 19.978516 3.015625 z M 19.232422 4.9042969 L 18.009766 11.421875 A 0.50005 0.50005 0 0 0 18.013672 11.626953 L 19.949219 20.013672 L 18 20.013672 L 18 19.513672 A 0.50005 0.50005 0 0 0 17.5 19.013672 L 14.5 19.013672 A 0.50005 0.50005 0 0 0 14 19.513672 L 14 20.013672 L 11.910156 20.013672 L 13.958984 9.7714844 L 19.232422 4.9042969 z M 15 20.013672 L 17 20.013672 L 17 23.013672 L 15 23.013672 L 15 20.013672 z M 11.710938 21.013672 L 14 21.013672 L 14 22.013672 L 11.509766 22.013672 L 11.710938 21.013672 z M 18 21.013672 L 20.179688 21.013672 L 20.410156 22.013672 L 18 22.013672 L 18 21.013672 z M 21.46875 22.150391 C 24.044898 22.461244 26.131772 22.964909 27.429688 23.556641 C 28.156696 23.888041 28.634201 24.250503 28.833984 24.533203 C 29.033768 24.815903 29.045433 24.944922 28.863281 25.232422 C 28.681139 25.519822 28.211795 25.894069 27.488281 26.230469 C 26.764767 26.566769 25.800485 26.877119 24.662109 27.136719 C 22.385358 27.656019 19.41159 27.974128 16.191406 27.986328 C 12.97119 27.998328 9.9634658 27.703672 7.6289062 27.201172 C 5.2943467 26.698672 3.6380833 25.910634 3.1855469 25.302734 C 2.9592733 24.998734 2.9624458 24.867663 3.1210938 24.601562 C 3.2797414 24.335462 3.7066031 23.974825 4.3925781 23.640625 C 5.6609577 23.022591 7.789493 22.485521 10.460938 22.158203 L 10.009766 24.416016 A 0.50006119 0.50006119 0 0 0 10.990234 24.613281 L 11.310547 23.013672 L 14 23.013672 L 14 23.513672 A 0.50005 0.50005 0 0 0 14.5 24.013672 L 17.5 24.013672 A 0.50005 0.50005 0 0 0 18 23.513672 L 18 23.013672 L 20.640625 23.013672 L 21.013672 24.626953 A 0.50007696 0.50007696 0 1 0 21.988281 24.402344 L 21.46875 22.150391 z " color="#000" enable-background="accumulate" font-family="sans-serif" font-weight="400" overflow="visible"/></svg>